<svg xmlns="http://www.w3.org/2000/svg" xmlns:xlink="http://www.w3.org/1999/xlink" width="500" zoomAndPan="magnify" viewBox="0 0 375 374.999991" height="500" preserveAspectRatio="xMidYMid meet" version="1.0"><defs><g/></defs><g fill="#000000" fill-opacity="1"><g transform="translate(36.607356, 190.409109)"><g><path d="M 34.09375 -42.84375 L 0.917969 -42.84375 L 0.917969 -42.539062 C 3.425781 -42.234375 5.570312 -41.558594 5.570312 -39.355469 L 5.570312 -4.714844 C 5.570312 -2.507812 3.425781 -1.222656 0.917969 -0.304688 L 0.917969 0 L 16.464844 0 L 16.464844 -0.304688 C 13.957031 -0.613281 11.8125 -1.285156 11.8125 -3.488281 L 11.8125 -20.320312 L 20.6875 -20.320312 C 27.175781 -20.320312 29.011719 -18.667969 30.480469 -14.140625 L 30.480469 -27.480469 C 29.011719 -22.953125 27.175781 -21.300781 20.6875 -21.300781 L 11.8125 -21.300781 L 11.8125 -41.867188 L 22.464844 -41.867188 C 29.257812 -41.867188 31.765625 -38.804688 35.867188 -32.992188 L 36.113281 -33.113281 Z M 34.09375 -42.84375 "/></g></g></g><g fill="#000000" fill-opacity="1"><g transform="translate(81.227867, 190.409109)"><g><path d="M 36.171875 -11.933594 C 31.644531 -4.835938 28.707031 -0.980469 20.257812 -0.980469 L 11.8125 -0.980469 L 11.8125 -39.355469 C 11.8125 -41.558594 13.957031 -42.234375 17.078125 -42.539062 L 17.078125 -42.84375 L 0.917969 -42.84375 L 0.917969 -42.539062 C 3.425781 -42.234375 5.570312 -41.558594 5.570312 -39.355469 L 5.570312 -4.714844 C 5.570312 -2.507812 3.425781 -1.222656 0.917969 -0.304688 L 0.917969 0 L 30.972656 0 L 33.050781 1.347656 L 33.417969 0 L 36.417969 -11.8125 Z M 36.171875 -11.933594 "/></g></g></g><g fill="#000000" fill-opacity="1"><g transform="translate(125.848378, 190.409109)"><g><path d="M 41.925781 -7.710938 L 29.011719 -40.335938 C 27.726562 -43.519531 27.664062 -44.007812 27.664062 -44.496094 L 21.972656 -40.765625 L 20.996094 -40.089844 L 21.117188 -38.746094 L 7.527344 -7.40625 C 5.265625 -2.140625 3.792969 -0.980469 1.222656 -0.246094 L 1.222656 0 L 12.488281 0 L 12.488281 -0.246094 C 9.058594 -0.980469 6.609375 -2.082031 8.875 -7.34375 L 10.222656 -10.40625 L 34.152344 -10.40625 L 35.378906 -7.34375 C 37.519531 -1.957031 35.070312 -0.613281 30.789062 -0.246094 L 30.789062 0 L 47.988281 0 L 47.988281 -0.246094 C 45.230469 -0.613281 44.128906 -2.082031 41.925781 -7.710938 Z M 10.648438 -11.507812 L 22.648438 -39.171875 L 33.726562 -11.507812 Z M 10.648438 -11.507812 "/></g></g></g><g fill="#000000" fill-opacity="1"><g transform="translate(182.343072, 190.409109)"><g><path d="M 34.828125 -42.84375 L 34.828125 -42.601562 C 38.253906 -41.867188 40.703125 -40.765625 38.4375 -35.5 L 24.726562 -3.609375 L 11.996094 -35.5 C 9.855469 -40.886719 12.363281 -42.234375 16.648438 -42.601562 L 16.648438 -42.84375 L 1.222656 -42.84375 C 2.140625 -42.050781 3.367188 -40.214844 4.222656 -38.132812 L 19.832031 0.613281 L 19.648438 1.898438 L 25.402344 -2.082031 L 39.785156 -35.4375 C 42.050781 -40.703125 43.519531 -41.867188 46.089844 -42.601562 L 46.089844 -42.84375 Z M 34.828125 -42.84375 "/></g></g></g><g fill="#000000" fill-opacity="1"><g transform="translate(236.940335, 190.409109)"><g><path d="M 25.828125 -43.703125 C 13.039062 -43.703125 2.753906 -35.195312 2.753906 -21.421875 C 2.753906 -7.652344 13.039062 0.855469 25.828125 0.855469 C 38.5625 0.855469 48.84375 -7.652344 48.84375 -21.421875 C 48.84375 -35.195312 38.5625 -43.703125 25.828125 -43.703125 Z M 28.277344 -0.246094 C 17.261719 -0.246094 9.363281 -12.730469 9.363281 -25.09375 C 9.363281 -35.4375 14.875 -42.601562 23.320312 -42.601562 C 34.335938 -42.601562 42.234375 -30.113281 42.234375 -17.8125 C 42.234375 -7.40625 36.722656 -0.246094 28.277344 -0.246094 Z M 28.277344 -0.246094 "/></g></g></g><g fill="#000000" fill-opacity="1"><g transform="translate(295.822106, 190.409109)"><g><path d="M 34.03125 -8.078125 L 26.441406 -18.363281 C 33.96875 -20.199219 38.5625 -25.21875 38.5625 -31.582031 C 38.5625 -39.113281 32.257812 -42.84375 22.402344 -42.84375 L 0.917969 -42.84375 L 0.917969 -42.539062 C 3.425781 -42.234375 5.570312 -41.558594 5.570312 -39.355469 L 5.570312 -3.488281 C 5.570312 -1.285156 3.425781 -0.613281 0.917969 -0.304688 L 0.917969 0 L 16.464844 0 L 16.464844 -0.304688 C 13.957031 -0.613281 11.8125 -1.285156 11.8125 -3.488281 L 11.8125 -17.566406 L 20.136719 -17.566406 L 32.074219 -1.039062 L 32.074219 0 L 43.152344 0 L 43.152344 -0.183594 C 39.96875 -1.773438 37.644531 -3.121094 34.03125 -8.078125 Z M 11.8125 -20.015625 L 11.8125 -41.742188 L 19.097656 -41.742188 C 30.605469 -41.742188 32.441406 -35.4375 32.441406 -29.320312 C 32.441406 -20.8125 29.011719 -18.667969 21.421875 -18.667969 C 18.117188 -18.667969 15.058594 -19.097656 11.8125 -20.015625 Z M 11.8125 -20.015625 "/></g></g></g><g fill="#000000" fill-opacity="1"><g transform="translate(128.001881, 239.909106)"><g><path d="M 21.347656 -17.375 L 21.347656 -17.5 L 16.898438 -17.5 L 10.925781 -3.375 L 3.851562 -17.5 L 0.25 -17.5 C 1.324219 -16.699219 1.800781 -15.949219 2.273438 -15 L 2.273438 -3.925781 C 2.273438 -0.523438 1.398438 -0.25 0.375 -0.125 L 0.375 0 L 4.675781 0 L 4.675781 -0.125 C 3.648438 -0.25 2.773438 -1.023438 2.773438 -4.425781 L 2.773438 -14 L 9.925781 0.273438 L 16.898438 -16.199219 L 16.898438 -1.425781 C 16.898438 -0.523438 16.023438 -0.25 15 -0.125 L 15 0 L 21.347656 0 L 21.347656 -0.125 C 20.324219 -0.25 19.449219 -0.523438 19.449219 -1.425781 L 19.449219 -16.074219 C 19.449219 -16.972656 20.324219 -17.25 21.347656 -17.375 Z M 21.347656 -17.375 "/></g></g></g><g fill="#000000" fill-opacity="1"><g transform="translate(153.498426, 239.909106)"><g><path d="M 17.125 -3.148438 L 11.847656 -16.472656 C 11.324219 -17.773438 11.300781 -17.972656 11.300781 -18.171875 L 8.972656 -16.648438 L 8.574219 -16.375 L 8.625 -15.824219 L 3.074219 -3.023438 C 2.148438 -0.875 1.550781 -0.398438 0.5 -0.101562 L 0.5 0 L 5.097656 0 L 5.097656 -0.101562 C 3.699219 -0.398438 2.699219 -0.851562 3.625 -3 L 4.175781 -4.25 L 13.949219 -4.25 L 14.449219 -3 C 15.324219 -0.800781 14.324219 -0.25 12.574219 -0.101562 L 12.574219 0 L 19.597656 0 L 19.597656 -0.101562 C 18.472656 -0.25 18.023438 -0.851562 17.125 -3.148438 Z M 4.347656 -4.699219 L 9.25 -16 L 13.773438 -4.699219 Z M 4.347656 -4.699219 "/></g></g></g><g fill="#000000" fill-opacity="1"><g transform="translate(177.370231, 239.909106)"><g><path d="M 0.375 0 L 6.722656 0 L 6.722656 -0.125 C 5.699219 -0.25 4.824219 -0.523438 4.824219 -1.425781 L 4.824219 -16.074219 C 4.824219 -16.972656 5.699219 -17.25 6.722656 -17.375 L 6.722656 -17.5 L 0.375 -17.5 L 0.375 -17.375 C 1.398438 -17.25 2.273438 -16.972656 2.273438 -16.074219 L 2.273438 -1.425781 C 2.273438 -0.523438 1.398438 -0.25 0.375 -0.125 Z M 0.375 0 "/></g></g></g><g fill="#000000" fill-opacity="1"><g transform="translate(188.244086, 239.909106)"><g><path d="M 8.574219 -9.972656 C 5.949219 -10.574219 3.523438 -11.425781 3.523438 -14.273438 C 3.523438 -15.972656 4.375 -17.421875 6.75 -17.421875 C 9.550781 -17.421875 12.125 -15.421875 11.722656 -12.046875 L 13.949219 -15.574219 C 12.625 -16.847656 10.722656 -17.847656 7.875 -17.847656 C 3.949219 -17.847656 1.5 -15.949219 1.5 -13.046875 C 1.5 -11.023438 2.675781 -8.675781 7.398438 -7.550781 C 10.375 -6.847656 12.273438 -6.175781 12.273438 -3.648438 C 12.273438 -2.023438 11.5 -0.101562 8.625 -0.101562 C 5.648438 -0.101562 2.800781 -2.101562 3.175781 -5.472656 L 1 -2 C 2.351562 -0.699219 4.597656 0.351562 7.523438 0.351562 C 11.921875 0.351562 14.25 -2.050781 14.25 -4.875 C 14.25 -6.625 13.375 -8.875 8.574219 -9.972656 Z M 8.574219 -9.972656 "/></g></g></g><g fill="#000000" fill-opacity="1"><g transform="translate(207.266654, 239.909106)"><g><path d="M 10.550781 -17.847656 C 5.324219 -17.847656 1.125 -14.375 1.125 -8.75 C 1.125 -3.125 5.324219 0.351562 10.550781 0.351562 C 15.75 0.351562 19.949219 -3.125 19.949219 -8.75 C 19.949219 -14.375 15.75 -17.847656 10.550781 -17.847656 Z M 11.550781 -0.101562 C 7.050781 -0.101562 3.824219 -5.199219 3.824219 -10.25 C 3.824219 -14.472656 6.074219 -17.398438 9.523438 -17.398438 C 14.023438 -17.398438 17.25 -12.296875 17.25 -7.273438 C 17.25 -3.023438 15 -0.101562 11.550781 -0.101562 Z M 11.550781 -0.101562 "/></g></g></g><g fill="#000000" fill-opacity="1"><g transform="translate(232.113297, 239.909106)"><g><path d="M 13.671875 -17.5 L 13.671875 -17.375 C 14.699219 -17.25 15.574219 -16.472656 15.574219 -13.074219 L 15.574219 -4 L 5.375 -16.148438 C 4.847656 -16.75 4.625 -17.199219 4.449219 -17.5 L 0.25 -17.5 C 1.050781 -17.097656 1.675781 -16.523438 2.523438 -15.523438 L 2.523438 -3.925781 C 2.523438 -0.523438 1.648438 -0.25 0.625 -0.125 L 0.625 0 L 4.925781 0 L 4.925781 -0.125 C 3.898438 -0.25 3.023438 -1.023438 3.023438 -4.425781 L 3.023438 -14.921875 L 16.171875 0.699219 L 16.222656 0.648438 C 16.171875 -0.25 16.097656 -1.550781 16.097656 -4.148438 L 16.097656 -13.574219 C 16.097656 -16.972656 16.972656 -17.25 18 -17.375 L 18 -17.5 Z M 13.671875 -17.5 "/></g></g></g></svg>